<?xml version="1.0" encoding="utf-8"?>
<!-- Generator: Adobe Illustrator 16.0.4, SVG Export Plug-In . SVG Version: 6.00 Build 0)  -->
<!DOCTYPE svg PUBLIC "-//W3C//DTD SVG 1.1//EN" "http://www.w3.org/Graphics/SVG/1.1/DTD/svg11.dtd">
<svg version="1.1" id="Layer_1" xmlns="http://www.w3.org/2000/svg" xmlns:xlink="http://www.w3.org/1999/xlink" x="0px" y="0px"
	 width="181.334px" height="151.633px" viewBox="0 0 181.334 151.633" enable-background="new 0 0 181.334 151.633"
	 xml:space="preserve">
<g>
	
		<line fill="none" stroke="#000000" stroke-width="7.1455" stroke-miterlimit="10" x1="70.669" y1="28.746" x2="109.114" y2="28.746"/>
	<polygon points="107.55,34.09 116.806,28.746 107.55,23.401 	"/>
	
		<line fill="none" stroke="#000000" stroke-width="7.1455" stroke-miterlimit="10" x1="121.57" y1="28.746" x2="160.022" y2="28.746"/>
	<polygon points="158.458,34.09 167.714,28.746 158.458,23.401 	"/>
	
		<line fill="none" stroke="#000000" stroke-width="7.1455" stroke-miterlimit="10" x1="18.398" y1="58.775" x2="56.842" y2="58.775"/>
	<polygon points="55.277,64.119 64.533,58.775 55.277,53.431 	"/>
	<g>
		<path d="M71.255,18.25l1.644-7.848h3.276c0.567,0,0.993,0.065,1.276,0.195c0.284,0.13,0.519,0.354,0.704,0.669
			c0.186,0.316,0.278,0.67,0.278,1.063c0,0.325-0.065,0.655-0.198,0.99c-0.132,0.335-0.299,0.612-0.5,0.83
			c-0.202,0.218-0.406,0.382-0.613,0.493c-0.207,0.11-0.428,0.192-0.663,0.246c-0.504,0.118-1.013,0.177-1.526,0.177h-1.965
			l-0.663,3.185H71.255z M73.155,14.176h1.729c0.671,0,1.163-0.072,1.478-0.217c0.313-0.145,0.565-0.365,0.755-0.661
			c0.188-0.296,0.283-0.61,0.283-0.942c0-0.257-0.05-0.467-0.149-0.629c-0.101-0.162-0.241-0.282-0.423-0.358
			c-0.183-0.077-0.532-0.115-1.05-0.115h-2.013L73.155,14.176z"/>
		<path d="M78.461,18.25l1.638-7.848h0.969l-0.626,3.014c0.36-0.35,0.696-0.6,1.006-0.752c0.311-0.152,0.63-0.228,0.959-0.228
			c0.471,0,0.837,0.124,1.097,0.372c0.261,0.248,0.392,0.575,0.392,0.982c0,0.2-0.058,0.567-0.172,1.103l-0.701,3.356h-0.969
			l0.723-3.442c0.104-0.5,0.155-0.814,0.155-0.942c0-0.186-0.064-0.337-0.192-0.455c-0.129-0.118-0.314-0.177-0.558-0.177
			c-0.35,0-0.683,0.092-1.001,0.276c-0.317,0.184-0.566,0.436-0.746,0.755c-0.181,0.319-0.346,0.834-0.495,1.544L79.43,18.25H78.461
			z"/>
		<path d="M88.732,16.317l0.942,0.097c-0.136,0.467-0.447,0.912-0.934,1.333c-0.487,0.421-1.068,0.632-1.743,0.632
			c-0.421,0-0.808-0.097-1.158-0.292c-0.352-0.195-0.619-0.478-0.804-0.849c-0.184-0.371-0.275-0.794-0.275-1.269
			c0-0.621,0.144-1.223,0.431-1.807s0.659-1.017,1.116-1.301c0.457-0.284,0.951-0.426,1.483-0.426c0.678,0,1.22,0.21,1.624,0.632
			c0.405,0.421,0.607,0.996,0.607,1.724c0,0.278-0.024,0.564-0.074,0.856h-4.187c-0.015,0.11-0.021,0.21-0.021,0.3
			c0,0.532,0.122,0.938,0.367,1.218c0.244,0.28,0.543,0.42,0.896,0.42c0.332,0,0.658-0.109,0.979-0.327S88.555,16.728,88.732,16.317
			z M85.917,14.91h3.19c0.004-0.1,0.006-0.171,0.006-0.214c0-0.485-0.122-0.857-0.364-1.116c-0.243-0.259-0.555-0.388-0.937-0.388
			c-0.414,0-0.792,0.143-1.133,0.428S86.085,14.335,85.917,14.91z"/>
		<path d="M90.8,15.895l0.203-0.969h2.955l-0.198,0.969H90.8z"/>
		<path d="M98.433,15.156l0.188-0.889h3.437l-0.669,3.196c-0.432,0.271-0.925,0.493-1.478,0.664s-1.098,0.257-1.633,0.257
			c-1.142,0-1.995-0.344-2.559-1.033c-0.475-0.582-0.712-1.329-0.712-2.243c0-0.942,0.208-1.8,0.623-2.572
			c0.416-0.773,0.94-1.344,1.574-1.713c0.634-0.37,1.338-0.554,2.112-0.554c0.557,0,1.056,0.101,1.498,0.302
			s0.782,0.471,1.018,0.809c0.235,0.337,0.405,0.777,0.509,1.319l-1.028,0.112c-0.11-0.539-0.34-0.952-0.688-1.239
			c-0.349-0.287-0.795-0.431-1.341-0.431c-0.567,0-1.098,0.154-1.59,0.463c-0.493,0.309-0.887,0.774-1.181,1.397
			c-0.295,0.623-0.441,1.33-0.441,2.122c0,0.789,0.194,1.385,0.583,1.788s0.926,0.605,1.611,0.605c0.682,0,1.415-0.225,2.2-0.674
			l0.354-1.687H98.433z"/>
		<path d="M102.25,18.25l4.448-7.848h1.237l1.295,7.848h-1.017l-0.38-2.259h-3.175l-1.258,2.259H102.25z M105.108,15.183h2.597
			l-0.305-1.97c-0.118-0.782-0.191-1.433-0.22-1.954c-0.179,0.45-0.439,0.983-0.781,1.601L105.108,15.183z"/>
		<path d="M109.562,18.25l4.448-7.848h1.237l1.295,7.848h-1.017l-0.38-2.259h-3.175l-1.258,2.259H109.562z M112.421,15.183h2.597
			l-0.305-1.97c-0.118-0.782-0.191-1.433-0.22-1.954c-0.179,0.45-0.439,0.983-0.781,1.601L112.421,15.183z"/>
	</g>
	<g>
		<path d="M123.039,18.25l1.639-7.848h1.049l-1.45,6.959h4.073l-0.188,0.889H123.039z"/>
		<path d="M133.237,16.317l0.942,0.097c-0.136,0.467-0.447,0.912-0.934,1.333c-0.487,0.421-1.068,0.632-1.743,0.632
			c-0.421,0-0.808-0.097-1.158-0.292c-0.352-0.195-0.619-0.478-0.804-0.849c-0.184-0.371-0.275-0.794-0.275-1.269
			c0-0.621,0.144-1.223,0.431-1.807s0.659-1.017,1.116-1.301c0.457-0.284,0.951-0.426,1.483-0.426c0.678,0,1.22,0.21,1.624,0.632
			c0.405,0.421,0.607,0.996,0.607,1.724c0,0.278-0.024,0.564-0.074,0.856h-4.187c-0.015,0.11-0.021,0.21-0.021,0.3
			c0,0.532,0.122,0.938,0.367,1.218c0.244,0.28,0.543,0.42,0.896,0.42c0.332,0,0.658-0.109,0.979-0.327
			S133.06,16.728,133.237,16.317z M130.422,14.91h3.19c0.004-0.1,0.006-0.171,0.006-0.214c0-0.485-0.122-0.857-0.364-1.116
			c-0.243-0.259-0.555-0.388-0.937-0.388c-0.414,0-0.792,0.143-1.133,0.428S130.59,14.335,130.422,14.91z"/>
		<path d="M139.04,17.222c-0.682,0.771-1.38,1.156-2.093,1.156c-0.439,0-0.794-0.126-1.062-0.377
			c-0.27-0.251-0.404-0.559-0.404-0.923c0-0.239,0.061-0.649,0.182-1.231l0.686-3.282h0.969l-0.761,3.635
			c-0.063,0.303-0.096,0.539-0.096,0.707c0,0.214,0.064,0.381,0.195,0.5c0.13,0.12,0.322,0.18,0.575,0.18
			c0.271,0,0.536-0.066,0.795-0.198s0.481-0.311,0.669-0.535c0.188-0.225,0.34-0.491,0.458-0.798
			c0.078-0.196,0.17-0.541,0.273-1.033l0.514-2.457h0.969l-1.188,5.685h-0.894L139.04,17.222z"/>
		<path d="M141.401,15.895l0.203-0.969h2.955l-0.198,0.969H141.401z"/>
		<path d="M151.154,15.488l1.038,0.145c-0.328,0.907-0.807,1.592-1.435,2.056s-1.333,0.696-2.114,0.696
			c-0.953,0-1.709-0.291-2.268-0.873s-0.837-1.415-0.837-2.5c0-1.413,0.424-2.582,1.273-3.506c0.757-0.824,1.697-1.236,2.821-1.236
			c0.831,0,1.505,0.223,2.021,0.669c0.516,0.446,0.814,1.046,0.896,1.799l-0.979,0.091c-0.104-0.567-0.316-0.991-0.64-1.271
			c-0.322-0.28-0.739-0.42-1.25-0.42c-0.96,0-1.736,0.426-2.328,1.279c-0.514,0.735-0.771,1.608-0.771,2.618
			c0,0.807,0.198,1.422,0.595,1.847c0.396,0.425,0.912,0.637,1.547,0.637c0.543,0,1.033-0.177,1.473-0.53
			C150.635,16.633,150.954,16.134,151.154,15.488z"/>
		<path d="M152.24,18.25l4.448-7.848h1.237l1.295,7.848h-1.017l-0.38-2.259h-3.175l-1.258,2.259H152.24z M155.099,15.183h2.597
			l-0.305-1.97c-0.118-0.782-0.191-1.433-0.22-1.954c-0.179,0.45-0.439,0.983-0.781,1.601L155.099,15.183z"/>
		<path d="M159.553,18.25l4.448-7.848h1.237l1.295,7.848h-1.017l-0.38-2.259h-3.175l-1.258,2.259H159.553z M162.411,15.183h2.597
			l-0.305-1.97c-0.118-0.782-0.191-1.433-0.22-1.954c-0.179,0.45-0.439,0.983-0.781,1.601L162.411,15.183z"/>
	</g>
	<g>
		<path d="M19.594,48.279l1.639-7.848h1.049l-1.45,6.959h4.073l-0.188,0.889H19.594z"/>
		<path d="M25.055,50.474l0.059-0.91c0.2,0.057,0.395,0.086,0.584,0.086c0.196,0,0.354-0.045,0.477-0.134
			c0.156-0.118,0.328-0.339,0.514-0.664l0.311-0.557l-0.947-5.701h0.952l0.429,2.875c0.086,0.567,0.158,1.135,0.22,1.703
			l2.542-4.577h1.012l-3.624,6.44c-0.35,0.628-0.66,1.044-0.931,1.247c-0.271,0.204-0.584,0.305-0.938,0.305
			C25.488,50.586,25.269,50.549,25.055,50.474z"/>
		<path d="M30.992,46.336l0.969-0.059c0,0.278,0.043,0.516,0.129,0.712c0.085,0.196,0.243,0.357,0.474,0.482
			c0.229,0.125,0.498,0.187,0.806,0.187c0.428,0,0.749-0.085,0.963-0.257c0.215-0.171,0.321-0.373,0.321-0.605
			c0-0.167-0.063-0.327-0.192-0.477c-0.132-0.15-0.454-0.334-0.966-0.554c-0.513-0.22-0.84-0.374-0.982-0.463
			c-0.239-0.146-0.42-0.318-0.541-0.517c-0.121-0.198-0.182-0.425-0.182-0.682c0-0.45,0.178-0.835,0.535-1.156
			c0.356-0.321,0.856-0.482,1.499-0.482c0.714,0,1.257,0.165,1.63,0.495s0.566,0.765,0.581,1.304l-0.948,0.064
			c-0.014-0.342-0.136-0.614-0.363-0.813c-0.229-0.2-0.552-0.3-0.97-0.3c-0.335,0-0.596,0.077-0.781,0.23
			c-0.186,0.154-0.278,0.319-0.278,0.498c0,0.178,0.08,0.335,0.241,0.471c0.106,0.093,0.384,0.235,0.829,0.428
			c0.742,0.321,1.21,0.574,1.403,0.76c0.307,0.296,0.46,0.657,0.46,1.082c0,0.282-0.087,0.559-0.26,0.83
			c-0.173,0.271-0.438,0.488-0.792,0.65c-0.355,0.163-0.773,0.244-1.256,0.244c-0.656,0-1.215-0.162-1.675-0.487
			C31.185,47.596,30.967,47.068,30.992,46.336z"/>
		<path d="M36.527,45.924l0.203-0.969h2.955l-0.198,0.969H36.527z"/>
		<path d="M41.843,40.432h1.049l-1.007,4.823c-0.082,0.399-0.123,0.696-0.123,0.889c0,0.421,0.166,0.76,0.498,1.017
			c0.332,0.257,0.75,0.385,1.253,0.385c0.399,0,0.771-0.092,1.116-0.276c0.344-0.184,0.616-0.454,0.816-0.811
			c0.199-0.356,0.38-0.926,0.54-1.708l0.905-4.32h1.049l-0.958,4.604c-0.164,0.785-0.38,1.407-0.647,1.866s-0.64,0.826-1.114,1.103
			c-0.475,0.277-1.025,0.415-1.653,0.415c-0.593,0-1.105-0.098-1.539-0.294s-0.759-0.467-0.975-0.813s-0.324-0.739-0.324-1.178
			c0-0.275,0.073-0.748,0.22-1.419L41.843,40.432z"/>
		<path d="M49.761,40.432h1.049l-1.007,4.823c-0.082,0.399-0.123,0.696-0.123,0.889c0,0.421,0.166,0.76,0.498,1.017
			c0.332,0.257,0.75,0.385,1.253,0.385c0.399,0,0.771-0.092,1.116-0.276c0.344-0.184,0.616-0.454,0.816-0.811
			c0.199-0.356,0.38-0.926,0.54-1.708l0.905-4.32h1.049l-0.958,4.604c-0.164,0.785-0.38,1.407-0.647,1.866s-0.64,0.826-1.114,1.103
			c-0.475,0.277-1.025,0.415-1.653,0.415c-0.593,0-1.105-0.098-1.539-0.294s-0.759-0.467-0.975-0.813s-0.324-0.739-0.324-1.178
			c0-0.275,0.073-0.748,0.22-1.419L49.761,40.432z"/>
		<path d="M57.678,40.432h1.049l-1.007,4.823c-0.082,0.399-0.123,0.696-0.123,0.889c0,0.421,0.166,0.76,0.498,1.017
			c0.332,0.257,0.75,0.385,1.253,0.385c0.399,0,0.771-0.092,1.116-0.276c0.344-0.184,0.616-0.454,0.816-0.811
			c0.199-0.356,0.38-0.926,0.54-1.708l0.905-4.32h1.049l-0.958,4.604c-0.164,0.785-0.38,1.407-0.647,1.866s-0.64,0.826-1.114,1.103
			c-0.475,0.277-1.025,0.415-1.653,0.415c-0.593,0-1.105-0.098-1.539-0.294s-0.759-0.467-0.975-0.813s-0.324-0.739-0.324-1.178
			c0-0.275,0.073-0.748,0.22-1.419L57.678,40.432z"/>
	</g>
	
		<line fill="none" stroke="#000000" stroke-width="7.1455" stroke-miterlimit="10" x1="70.662" y1="84.295" x2="109.114" y2="84.295"/>
	<polygon points="107.55,89.639 116.806,84.295 107.55,78.951 	"/>
	
		<line fill="none" stroke="#000000" stroke-width="7.1455" stroke-miterlimit="10" x1="121.57" y1="84.295" x2="160.016" y2="84.295"/>
	<polygon points="158.451,89.639 167.707,84.295 158.451,78.951 	"/>
	
		<line fill="none" stroke="#000000" stroke-width="7.1455" stroke-miterlimit="10" x1="18.396" y1="112.328" x2="56.842" y2="112.328"/>
	<polygon points="55.277,117.673 64.533,112.328 55.277,106.984 	"/>
	
		<line fill="none" stroke="#000000" stroke-width="7.1455" stroke-miterlimit="10" x1="70.662" y1="112.731" x2="109.114" y2="112.731"/>
	<polygon points="107.55,118.076 116.806,112.731 107.55,107.387 	"/>
	<g>
		<path d="M75.314,73.799l1.45-6.954H74.19l0.188-0.894h6.177l-0.187,0.894h-2.554l-1.451,6.954H75.314z"/>
		<path d="M78.711,75.994l0.059-0.91c0.2,0.057,0.395,0.086,0.584,0.086c0.196,0,0.354-0.045,0.477-0.134
			c0.156-0.118,0.328-0.339,0.514-0.664l0.311-0.557l-0.947-5.701h0.952l0.429,2.875c0.086,0.567,0.158,1.135,0.22,1.703
			l2.542-4.577h1.012l-3.624,6.44c-0.35,0.628-0.66,1.044-0.931,1.247c-0.271,0.204-0.584,0.305-0.938,0.305
			C79.145,76.106,78.925,76.068,78.711,75.994z"/>
		<path d="M84.557,73.799l1.188-5.685h0.856l-0.241,1.162c0.293-0.439,0.579-0.764,0.859-0.974s0.566-0.316,0.859-0.316
			c0.192,0,0.43,0.069,0.712,0.209l-0.396,0.899c-0.168-0.121-0.352-0.182-0.552-0.182c-0.339,0-0.687,0.189-1.043,0.567
			c-0.357,0.378-0.638,1.058-0.841,2.04l-0.481,2.28H84.557z"/>
		<path d="M88.166,71.443l0.203-0.969h2.955l-0.198,0.969H88.166z"/>
		<path d="M95.799,70.705l0.188-0.889h3.437l-0.669,3.196c-0.432,0.271-0.925,0.493-1.478,0.664s-1.098,0.257-1.633,0.257
			c-1.142,0-1.995-0.344-2.559-1.033c-0.475-0.582-0.712-1.329-0.712-2.243c0-0.942,0.208-1.8,0.623-2.572
			c0.416-0.773,0.94-1.344,1.574-1.713c0.634-0.37,1.338-0.554,2.112-0.554c0.557,0,1.056,0.101,1.498,0.302
			s0.782,0.471,1.018,0.809c0.235,0.337,0.405,0.777,0.509,1.319l-1.028,0.112c-0.11-0.539-0.34-0.952-0.688-1.239
			c-0.349-0.287-0.795-0.431-1.341-0.431c-0.567,0-1.098,0.154-1.59,0.463c-0.493,0.309-0.887,0.774-1.181,1.397
			c-0.295,0.623-0.441,1.33-0.441,2.122c0,0.789,0.194,1.385,0.583,1.788s0.926,0.605,1.611,0.605c0.682,0,1.415-0.225,2.2-0.674
			l0.354-1.687H95.799z"/>
		<path d="M102.009,65.951h1.049l-1.007,4.823c-0.082,0.399-0.123,0.696-0.123,0.889c0,0.421,0.166,0.76,0.498,1.017
			c0.332,0.257,0.75,0.385,1.253,0.385c0.399,0,0.771-0.092,1.116-0.276c0.344-0.184,0.616-0.454,0.816-0.811
			c0.199-0.356,0.38-0.926,0.54-1.708l0.905-4.32h1.049l-0.958,4.604c-0.164,0.785-0.38,1.407-0.647,1.866s-0.64,0.826-1.114,1.103
			c-0.475,0.277-1.025,0.415-1.653,0.415c-0.593,0-1.105-0.098-1.539-0.294s-0.759-0.467-0.975-0.813s-0.324-0.739-0.324-1.178
			c0-0.275,0.073-0.748,0.22-1.419L102.009,65.951z"/>
		<path d="M107.532,73.799l4.448-7.848h1.237l1.295,7.848h-1.017l-0.38-2.259h-3.175l-1.258,2.259H107.532z M110.391,70.731h2.597
			l-0.305-1.97c-0.118-0.782-0.191-1.433-0.22-1.954c-0.179,0.45-0.439,0.983-0.781,1.601L110.391,70.731z"/>
	</g>
	<g>
		<path d="M122.271,73.799l1.644-7.848h3.276c0.567,0,0.993,0.065,1.276,0.195c0.284,0.13,0.519,0.354,0.704,0.669
			c0.186,0.316,0.278,0.67,0.278,1.063c0,0.325-0.065,0.655-0.198,0.99c-0.132,0.335-0.299,0.612-0.5,0.83
			c-0.202,0.218-0.406,0.382-0.613,0.493c-0.207,0.11-0.428,0.192-0.663,0.246c-0.504,0.118-1.013,0.177-1.526,0.177h-1.965
			l-0.663,3.185H122.271z M124.171,69.725h1.729c0.671,0,1.163-0.072,1.478-0.217c0.313-0.145,0.565-0.365,0.755-0.661
			c0.188-0.296,0.283-0.61,0.283-0.942c0-0.257-0.05-0.467-0.149-0.629c-0.101-0.162-0.241-0.282-0.423-0.358
			c-0.183-0.077-0.532-0.115-1.05-0.115h-2.013L124.171,69.725z"/>
		<path d="M129.477,73.799l1.188-5.685h0.856l-0.241,1.162c0.293-0.439,0.579-0.764,0.859-0.974s0.566-0.316,0.859-0.316
			c0.192,0,0.43,0.069,0.712,0.209l-0.396,0.899c-0.168-0.121-0.352-0.182-0.552-0.182c-0.339,0-0.687,0.189-1.043,0.567
			c-0.357,0.378-0.638,1.058-0.841,2.04l-0.481,2.28H129.477z"/>
		<path d="M133.298,71.642c0-1.11,0.327-2.029,0.979-2.757c0.539-0.6,1.246-0.899,2.12-0.899c0.686,0,1.237,0.214,1.657,0.643
			c0.419,0.428,0.629,1.006,0.629,1.734c0,0.653-0.133,1.26-0.396,1.823c-0.264,0.562-0.64,0.993-1.127,1.292s-1,0.45-1.539,0.45
			c-0.442,0-0.845-0.095-1.207-0.284s-0.639-0.457-0.83-0.803C133.394,72.495,133.298,72.095,133.298,71.642z M134.267,71.545
			c0,0.536,0.129,0.941,0.386,1.218c0.257,0.276,0.584,0.415,0.979,0.415c0.207,0,0.412-0.042,0.616-0.125
			c0.203-0.084,0.392-0.211,0.567-0.383c0.175-0.171,0.323-0.367,0.446-0.586c0.123-0.219,0.223-0.456,0.298-0.709
			c0.11-0.354,0.165-0.692,0.165-1.017c0-0.514-0.129-0.913-0.388-1.197s-0.584-0.425-0.977-0.425c-0.304,0-0.58,0.072-0.83,0.217
			s-0.476,0.356-0.677,0.634c-0.202,0.278-0.351,0.602-0.444,0.972C134.314,70.927,134.267,71.256,134.267,71.545z"/>
		<path d="M139.369,71.443l0.203-0.969h2.955l-0.198,0.969H139.369z"/>
		<path d="M144.685,65.951h1.049l-1.007,4.823c-0.082,0.399-0.123,0.696-0.123,0.889c0,0.421,0.166,0.76,0.498,1.017
			c0.332,0.257,0.75,0.385,1.253,0.385c0.399,0,0.771-0.092,1.116-0.276c0.344-0.184,0.616-0.454,0.816-0.811
			c0.199-0.356,0.38-0.926,0.54-1.708l0.905-4.32h1.049l-0.958,4.604c-0.164,0.785-0.38,1.407-0.647,1.866s-0.64,0.826-1.114,1.103
			c-0.475,0.277-1.025,0.415-1.653,0.415c-0.593,0-1.105-0.098-1.539-0.294s-0.759-0.467-0.975-0.813s-0.324-0.739-0.324-1.178
			c0-0.275,0.073-0.748,0.22-1.419L144.685,65.951z"/>
		<path d="M154.92,70.705l0.188-0.889h3.437l-0.669,3.196c-0.432,0.271-0.925,0.493-1.478,0.664s-1.098,0.257-1.633,0.257
			c-1.142,0-1.995-0.344-2.559-1.033c-0.475-0.582-0.712-1.329-0.712-2.243c0-0.942,0.208-1.8,0.623-2.572
			c0.416-0.773,0.94-1.344,1.574-1.713c0.634-0.37,1.338-0.554,2.112-0.554c0.557,0,1.056,0.101,1.498,0.302
			s0.782,0.471,1.018,0.809c0.235,0.337,0.405,0.777,0.509,1.319L157.8,68.36c-0.11-0.539-0.34-0.952-0.688-1.239
			c-0.349-0.287-0.795-0.431-1.341-0.431c-0.567,0-1.098,0.154-1.59,0.463c-0.493,0.309-0.887,0.774-1.181,1.397
			c-0.295,0.623-0.441,1.33-0.441,2.122c0,0.789,0.194,1.385,0.583,1.788s0.926,0.605,1.611,0.605c0.682,0,1.415-0.225,2.2-0.674
			l0.354-1.687H154.92z"/>
		<path d="M163.447,70.705l0.188-0.889h3.437l-0.669,3.196c-0.432,0.271-0.925,0.493-1.478,0.664s-1.098,0.257-1.633,0.257
			c-1.142,0-1.995-0.344-2.559-1.033c-0.475-0.582-0.712-1.329-0.712-2.243c0-0.942,0.208-1.8,0.623-2.572
			c0.416-0.773,0.94-1.344,1.574-1.713c0.634-0.37,1.338-0.554,2.112-0.554c0.557,0,1.056,0.101,1.498,0.302
			s0.782,0.471,1.018,0.809c0.235,0.337,0.405,0.777,0.509,1.319l-1.028,0.112c-0.11-0.539-0.34-0.952-0.688-1.239
			c-0.349-0.287-0.795-0.431-1.341-0.431c-0.567,0-1.098,0.154-1.59,0.463c-0.493,0.309-0.887,0.774-1.181,1.397
			c-0.295,0.623-0.441,1.33-0.441,2.122c0,0.789,0.194,1.385,0.583,1.788s0.926,0.605,1.611,0.605c0.682,0,1.415-0.225,2.2-0.674
			l0.354-1.687H163.447z"/>
	</g>
	<g>
		<path d="M20.301,99.299l1.028-0.097l-0.011,0.273c0,0.303,0.069,0.58,0.209,0.832c0.139,0.252,0.369,0.446,0.69,0.583
			c0.321,0.138,0.703,0.207,1.146,0.207c0.628,0,1.107-0.138,1.438-0.413c0.33-0.274,0.495-0.589,0.495-0.941
			c0-0.246-0.088-0.472-0.263-0.675c-0.179-0.2-0.666-0.471-1.461-0.813c-0.618-0.268-1.039-0.473-1.264-0.616
			c-0.354-0.231-0.614-0.484-0.781-0.757c-0.168-0.273-0.252-0.585-0.252-0.935c0-0.403,0.11-0.767,0.332-1.092
			c0.221-0.324,0.545-0.573,0.972-0.744c0.426-0.171,0.907-0.257,1.442-0.257c0.639,0,1.178,0.107,1.617,0.321
			c0.438,0.214,0.757,0.5,0.955,0.856s0.297,0.697,0.297,1.022c0,0.032-0.002,0.086-0.005,0.16l-1.012,0.081
			c0-0.222-0.02-0.395-0.06-0.52c-0.071-0.218-0.182-0.401-0.331-0.552c-0.15-0.149-0.356-0.271-0.619-0.361
			c-0.262-0.091-0.556-0.137-0.88-0.137c-0.571,0-1.016,0.129-1.333,0.386c-0.243,0.196-0.364,0.457-0.364,0.781
			c0,0.193,0.05,0.365,0.15,0.517c0.1,0.152,0.279,0.301,0.54,0.447c0.186,0.104,0.627,0.309,1.322,0.615
			c0.563,0.25,0.953,0.446,1.167,0.589c0.285,0.189,0.505,0.419,0.658,0.688s0.23,0.575,0.23,0.918c0,0.425-0.129,0.816-0.388,1.175
			s-0.617,0.637-1.073,0.833c-0.457,0.195-0.98,0.294-1.569,0.294c-0.888,0-1.613-0.193-2.176-0.581
			C20.588,101.002,20.305,100.305,20.301,99.299z"/>
		<path d="M31.382,99.903L32.324,100c-0.136,0.468-0.447,0.912-0.934,1.333c-0.487,0.421-1.068,0.632-1.743,0.632
			c-0.421,0-0.808-0.098-1.158-0.292c-0.352-0.194-0.619-0.478-0.804-0.849c-0.184-0.371-0.275-0.794-0.275-1.269
			c0-0.621,0.144-1.224,0.431-1.807c0.287-0.584,0.659-1.018,1.116-1.301c0.457-0.284,0.951-0.426,1.483-0.426
			c0.678,0,1.22,0.211,1.624,0.632c0.405,0.421,0.607,0.995,0.607,1.724c0,0.278-0.024,0.563-0.074,0.856h-4.187
			c-0.015,0.11-0.021,0.211-0.021,0.3c0,0.531,0.122,0.938,0.367,1.218c0.244,0.28,0.543,0.42,0.896,0.42
			c0.332,0,0.658-0.108,0.979-0.326S31.204,100.313,31.382,99.903z M28.566,98.495h3.19c0.004-0.1,0.006-0.171,0.006-0.214
			c0-0.485-0.122-0.857-0.364-1.116c-0.243-0.259-0.555-0.388-0.937-0.388c-0.414,0-0.792,0.143-1.133,0.428
			C28.988,97.491,28.734,97.921,28.566,98.495z"/>
		<path d="M33.304,101.836l1.188-5.685h0.856l-0.241,1.161c0.293-0.438,0.579-0.764,0.859-0.975c0.28-0.21,0.566-0.315,0.859-0.315
			c0.192,0,0.43,0.069,0.712,0.209l-0.396,0.899c-0.168-0.122-0.352-0.183-0.552-0.183c-0.339,0-0.687,0.189-1.043,0.567
			c-0.357,0.379-0.638,1.059-0.841,2.04l-0.481,2.28H33.304z"/>
		<path d="M36.902,99.48l0.203-0.969h2.955l-0.198,0.969H36.902z"/>
		<path d="M46.655,99.073l1.038,0.146c-0.328,0.906-0.807,1.591-1.435,2.055c-0.628,0.465-1.333,0.696-2.114,0.696
			c-0.953,0-1.709-0.291-2.268-0.872c-0.559-0.582-0.837-1.415-0.837-2.5c0-1.414,0.424-2.582,1.273-3.507
			c0.757-0.824,1.697-1.236,2.821-1.236c0.831,0,1.505,0.223,2.021,0.669s0.814,1.046,0.896,1.799l-0.979,0.091
			c-0.104-0.567-0.316-0.991-0.64-1.271c-0.322-0.28-0.739-0.42-1.25-0.42c-0.96,0-1.736,0.427-2.328,1.279
			c-0.514,0.735-0.771,1.607-0.771,2.618c0,0.806,0.198,1.422,0.595,1.847s0.912,0.637,1.547,0.637c0.543,0,1.033-0.177,1.473-0.53
			C46.136,100.22,46.455,99.72,46.655,99.073z"/>
		<path d="M52.453,98.742l0.188-0.889h3.437l-0.669,3.195c-0.432,0.271-0.925,0.493-1.478,0.664s-1.098,0.257-1.633,0.257
			c-1.142,0-1.995-0.345-2.559-1.033c-0.475-0.582-0.712-1.329-0.712-2.243c0-0.941,0.208-1.799,0.623-2.572
			c0.416-0.772,0.94-1.344,1.574-1.713s1.338-0.554,2.112-0.554c0.557,0,1.056,0.101,1.498,0.303
			c0.442,0.201,0.782,0.471,1.018,0.808c0.235,0.338,0.405,0.777,0.509,1.32l-1.028,0.112c-0.11-0.539-0.34-0.952-0.688-1.239
			c-0.349-0.287-0.795-0.432-1.341-0.432c-0.567,0-1.098,0.155-1.59,0.464c-0.493,0.309-0.887,0.774-1.181,1.396
			c-0.295,0.623-0.441,1.33-0.441,2.123c0,0.788,0.194,1.385,0.583,1.788s0.926,0.604,1.611,0.604c0.682,0,1.415-0.225,2.2-0.675
			l0.354-1.686H52.453z"/>
		<path d="M56.27,101.836l4.448-7.848h1.237l1.295,7.848h-1.017l-0.38-2.259h-3.175l-1.258,2.259H56.27z M59.128,98.769h2.597
			l-0.305-1.97c-0.118-0.781-0.191-1.433-0.22-1.954c-0.179,0.449-0.439,0.983-0.781,1.601L59.128,98.769z"/>
	</g>
	<g>
		<path d="M71.326,102.234l1.639-7.848h1.049l-1.45,6.959h4.073l-0.188,0.889H71.326z"/>
		<path d="M81.524,100.302l0.942,0.097c-0.136,0.468-0.447,0.912-0.934,1.333c-0.487,0.421-1.068,0.632-1.743,0.632
			c-0.421,0-0.808-0.098-1.158-0.292c-0.352-0.194-0.619-0.478-0.804-0.849c-0.184-0.371-0.275-0.794-0.275-1.269
			c0-0.621,0.144-1.224,0.431-1.807c0.287-0.584,0.659-1.018,1.116-1.301c0.457-0.284,0.951-0.426,1.483-0.426
			c0.678,0,1.22,0.211,1.624,0.632c0.405,0.421,0.607,0.995,0.607,1.724c0,0.278-0.024,0.563-0.074,0.856h-4.187
			c-0.015,0.11-0.021,0.211-0.021,0.3c0,0.531,0.122,0.938,0.367,1.218c0.244,0.28,0.543,0.42,0.896,0.42
			c0.332,0,0.658-0.108,0.979-0.326S81.347,100.712,81.524,100.302z M78.709,98.894h3.19c0.004-0.1,0.006-0.171,0.006-0.214
			c0-0.485-0.122-0.857-0.364-1.116c-0.243-0.259-0.555-0.388-0.937-0.388c-0.414,0-0.792,0.143-1.133,0.428
			C79.131,97.89,78.877,98.319,78.709,98.894z"/>
		<path d="M87.327,101.207c-0.682,0.771-1.38,1.156-2.093,1.156c-0.439,0-0.794-0.126-1.062-0.378
			c-0.27-0.252-0.404-0.56-0.404-0.923c0-0.239,0.061-0.65,0.182-1.231l0.686-3.281h0.969l-0.761,3.635
			c-0.063,0.303-0.096,0.538-0.096,0.706c0,0.214,0.064,0.381,0.195,0.501c0.13,0.119,0.322,0.179,0.575,0.179
			c0.271,0,0.536-0.065,0.795-0.198c0.259-0.132,0.481-0.31,0.669-0.535c0.188-0.225,0.34-0.49,0.458-0.797
			c0.078-0.196,0.17-0.541,0.273-1.033l0.514-2.457h0.969l-1.188,5.685h-0.894L87.327,101.207z"/>
		<path d="M89.688,99.879l0.203-0.969h2.955l-0.198,0.969H89.688z"/>
		<path d="M95.004,94.387h1.049l-1.007,4.823c-0.082,0.399-0.123,0.696-0.123,0.889c0,0.421,0.166,0.76,0.498,1.017
			s0.75,0.386,1.253,0.386c0.399,0,0.771-0.092,1.116-0.275c0.344-0.184,0.616-0.454,0.816-0.812c0.199-0.356,0.38-0.926,0.54-1.707
			l0.905-4.32h1.049l-0.958,4.604c-0.164,0.785-0.38,1.407-0.647,1.865c-0.268,0.459-0.64,0.827-1.114,1.104
			s-1.025,0.415-1.653,0.415c-0.593,0-1.105-0.099-1.539-0.295s-0.759-0.468-0.975-0.813c-0.216-0.347-0.324-0.739-0.324-1.178
			c0-0.274,0.073-0.748,0.22-1.419L95.004,94.387z"/>
		<path d="M100.527,102.234l4.448-7.848h1.237l1.295,7.848h-1.017l-0.38-2.259h-3.175l-1.258,2.259H100.527z M103.386,99.167h2.597
			l-0.305-1.97c-0.118-0.781-0.191-1.433-0.22-1.954c-0.179,0.449-0.439,0.983-0.781,1.601L103.386,99.167z"/>
		<path d="M112.551,99.141l0.188-0.889h3.437l-0.669,3.195c-0.432,0.271-0.925,0.493-1.478,0.664s-1.098,0.257-1.633,0.257
			c-1.142,0-1.995-0.345-2.559-1.033c-0.475-0.582-0.712-1.329-0.712-2.243c0-0.941,0.208-1.799,0.623-2.572
			c0.416-0.772,0.94-1.344,1.574-1.713s1.338-0.554,2.112-0.554c0.557,0,1.056,0.101,1.498,0.303
			c0.442,0.201,0.782,0.471,1.018,0.808c0.235,0.338,0.405,0.777,0.509,1.32l-1.028,0.112c-0.11-0.539-0.34-0.952-0.688-1.239
			c-0.349-0.287-0.795-0.432-1.341-0.432c-0.567,0-1.098,0.155-1.59,0.464c-0.493,0.309-0.887,0.774-1.181,1.396
			c-0.295,0.623-0.441,1.33-0.441,2.123c0,0.788,0.194,1.385,0.583,1.788s0.926,0.604,1.611,0.604c0.682,0,1.415-0.225,2.2-0.675
			l0.354-1.686H112.551z"/>
	</g>
	
		<line fill="none" stroke="#000000" stroke-width="7.1455" stroke-miterlimit="10" x1="70.669" y1="58.775" x2="109.114" y2="58.775"/>
	<polygon points="107.55,64.119 116.806,58.775 107.55,53.431 	"/>
	
		<line fill="none" stroke="#000000" stroke-width="7.1455" stroke-miterlimit="10" x1="121.57" y1="58.775" x2="160.022" y2="58.775"/>
	<polygon points="158.458,64.119 167.714,58.775 158.458,53.431 	"/>
	
		<line fill="none" stroke="#000000" stroke-width="7.1455" stroke-miterlimit="10" x1="18.398" y1="84.295" x2="56.842" y2="84.295"/>
	<polygon points="55.277,89.639 64.533,84.295 55.277,78.951 	"/>
	<g>
		<path d="M71.895,45.742l1.028-0.096l-0.011,0.273c0,0.304,0.069,0.581,0.209,0.833c0.139,0.251,0.369,0.446,0.69,0.583
			s0.703,0.206,1.146,0.206c0.628,0,1.107-0.137,1.438-0.412s0.495-0.589,0.495-0.942c0-0.246-0.088-0.471-0.263-0.674
			c-0.179-0.2-0.666-0.471-1.461-0.813c-0.618-0.268-1.039-0.473-1.264-0.616c-0.354-0.232-0.614-0.484-0.781-0.757
			c-0.168-0.273-0.252-0.584-0.252-0.935c0-0.403,0.11-0.767,0.332-1.092c0.221-0.325,0.545-0.573,0.972-0.744
			c0.426-0.171,0.907-0.257,1.442-0.257c0.639,0,1.178,0.107,1.617,0.321c0.438,0.214,0.757,0.5,0.955,0.856
			s0.297,0.698,0.297,1.022c0,0.032-0.002,0.085-0.005,0.161l-1.012,0.08c0-0.221-0.02-0.394-0.06-0.519
			c-0.071-0.218-0.182-0.402-0.331-0.552c-0.15-0.15-0.356-0.27-0.619-0.361c-0.262-0.091-0.556-0.136-0.88-0.136
			c-0.571,0-1.016,0.128-1.333,0.385c-0.243,0.196-0.364,0.457-0.364,0.782c0,0.193,0.05,0.365,0.15,0.517
			c0.1,0.152,0.279,0.301,0.54,0.447c0.186,0.104,0.627,0.309,1.322,0.616c0.563,0.25,0.953,0.446,1.167,0.589
			c0.285,0.189,0.505,0.418,0.658,0.688s0.23,0.575,0.23,0.918c0,0.425-0.129,0.816-0.388,1.175
			c-0.259,0.359-0.617,0.636-1.073,0.833c-0.457,0.196-0.98,0.294-1.569,0.294c-0.888,0-1.613-0.193-2.176-0.581
			C72.182,47.445,71.898,46.749,71.895,45.742z"/>
		<path d="M82.976,46.347l0.942,0.097c-0.136,0.467-0.447,0.912-0.934,1.333c-0.487,0.421-1.068,0.632-1.743,0.632
			c-0.421,0-0.808-0.097-1.158-0.292c-0.352-0.195-0.619-0.478-0.804-0.849c-0.184-0.371-0.275-0.794-0.275-1.269
			c0-0.621,0.144-1.223,0.431-1.807s0.659-1.017,1.116-1.301c0.457-0.284,0.951-0.426,1.483-0.426c0.678,0,1.22,0.21,1.624,0.632
			c0.405,0.421,0.607,0.996,0.607,1.724c0,0.278-0.024,0.564-0.074,0.856h-4.187c-0.015,0.11-0.021,0.21-0.021,0.3
			c0,0.532,0.122,0.938,0.367,1.218c0.244,0.28,0.543,0.42,0.896,0.42c0.332,0,0.658-0.109,0.979-0.327S82.798,46.757,82.976,46.347
			z M80.16,44.939h3.19c0.004-0.1,0.006-0.171,0.006-0.214c0-0.485-0.122-0.857-0.364-1.116c-0.243-0.259-0.555-0.388-0.937-0.388
			c-0.414,0-0.792,0.143-1.133,0.428S80.328,44.364,80.16,44.939z"/>
		<path d="M84.897,48.279l1.188-5.685h0.856l-0.241,1.162c0.293-0.439,0.579-0.764,0.859-0.974s0.566-0.316,0.859-0.316
			c0.192,0,0.43,0.069,0.712,0.209l-0.396,0.899c-0.168-0.121-0.352-0.182-0.552-0.182c-0.339,0-0.687,0.189-1.043,0.567
			c-0.357,0.378-0.638,1.058-0.841,2.04l-0.481,2.28H84.897z"/>
		<path d="M88.496,45.924l0.203-0.969h2.955l-0.198,0.969H88.496z"/>
		<path d="M96.129,45.185l0.188-0.889h3.437l-0.669,3.196c-0.432,0.271-0.925,0.493-1.478,0.664s-1.098,0.257-1.633,0.257
			c-1.142,0-1.995-0.344-2.559-1.033c-0.475-0.582-0.712-1.329-0.712-2.243c0-0.942,0.208-1.8,0.623-2.572
			c0.416-0.773,0.94-1.344,1.574-1.713c0.634-0.37,1.338-0.554,2.112-0.554c0.557,0,1.056,0.101,1.498,0.302
			s0.782,0.471,1.018,0.809c0.235,0.337,0.405,0.777,0.509,1.319l-1.028,0.112c-0.11-0.539-0.34-0.952-0.688-1.239
			c-0.349-0.287-0.795-0.431-1.341-0.431c-0.567,0-1.098,0.154-1.59,0.463c-0.493,0.309-0.887,0.774-1.181,1.397
			c-0.295,0.623-0.441,1.33-0.441,2.122c0,0.789,0.194,1.385,0.583,1.788s0.926,0.605,1.611,0.605c0.682,0,1.415-0.225,2.2-0.674
			l0.354-1.687H96.129z"/>
		<path d="M106.776,45.517l1.038,0.145c-0.328,0.907-0.807,1.592-1.435,2.056s-1.333,0.696-2.114,0.696
			c-0.953,0-1.709-0.291-2.268-0.873s-0.837-1.415-0.837-2.5c0-1.413,0.424-2.582,1.273-3.506c0.757-0.824,1.697-1.236,2.821-1.236
			c0.831,0,1.505,0.223,2.021,0.669c0.516,0.446,0.814,1.046,0.896,1.799l-0.979,0.091c-0.104-0.567-0.316-0.991-0.64-1.271
			c-0.322-0.28-0.739-0.42-1.25-0.42c-0.96,0-1.736,0.426-2.328,1.279c-0.514,0.735-0.771,1.608-0.771,2.618
			c0,0.807,0.198,1.422,0.595,1.847c0.396,0.425,0.912,0.637,1.547,0.637c0.543,0,1.033-0.177,1.473-0.53
			C106.257,46.663,106.576,46.163,106.776,45.517z"/>
		<path d="M110.257,40.432h1.049l-1.007,4.823c-0.082,0.399-0.123,0.696-0.123,0.889c0,0.421,0.166,0.76,0.498,1.017
			c0.332,0.257,0.75,0.385,1.253,0.385c0.399,0,0.771-0.092,1.116-0.276c0.344-0.184,0.616-0.454,0.816-0.811
			c0.199-0.356,0.38-0.926,0.54-1.708l0.905-4.32h1.049l-0.958,4.604c-0.164,0.785-0.38,1.407-0.647,1.866s-0.64,0.826-1.114,1.103
			c-0.475,0.277-1.025,0.415-1.653,0.415c-0.593,0-1.105-0.098-1.539-0.294s-0.759-0.467-0.975-0.813s-0.324-0.739-0.324-1.178
			c0-0.275,0.073-0.748,0.22-1.419L110.257,40.432z"/>
	</g>
	<g>
		<path d="M125.902,48.279l1.644-7.848h1.044l-1.638,7.848H125.902z"/>
		<path d="M128.611,48.279l1.638-7.848h0.97l-1.639,7.848H128.611z"/>
		<path d="M135.297,46.347l0.942,0.097c-0.136,0.467-0.447,0.912-0.934,1.333c-0.487,0.421-1.068,0.632-1.743,0.632
			c-0.421,0-0.808-0.097-1.158-0.292c-0.352-0.195-0.619-0.478-0.804-0.849c-0.184-0.371-0.275-0.794-0.275-1.269
			c0-0.621,0.144-1.223,0.431-1.807s0.659-1.017,1.116-1.301c0.457-0.284,0.951-0.426,1.483-0.426c0.678,0,1.22,0.21,1.624,0.632
			c0.405,0.421,0.607,0.996,0.607,1.724c0,0.278-0.024,0.564-0.074,0.856h-4.187c-0.015,0.11-0.021,0.21-0.021,0.3
			c0,0.532,0.122,0.938,0.367,1.218c0.244,0.28,0.543,0.42,0.896,0.42c0.332,0,0.658-0.109,0.979-0.327
			S135.119,46.757,135.297,46.347z M132.481,44.939h3.19c0.004-0.1,0.006-0.171,0.006-0.214c0-0.485-0.122-0.857-0.364-1.116
			c-0.243-0.259-0.555-0.388-0.937-0.388c-0.414,0-0.792,0.143-1.133,0.428S132.649,44.364,132.481,44.939z"/>
		<path d="M137.364,45.924l0.203-0.969h2.955l-0.198,0.969H137.364z"/>
		<path d="M142.68,40.432h1.049l-1.007,4.823c-0.082,0.399-0.123,0.696-0.123,0.889c0,0.421,0.166,0.76,0.498,1.017
			c0.332,0.257,0.75,0.385,1.253,0.385c0.399,0,0.771-0.092,1.116-0.276c0.344-0.184,0.616-0.454,0.816-0.811
			c0.199-0.356,0.38-0.926,0.54-1.708l0.905-4.32h1.049l-0.958,4.604c-0.164,0.785-0.38,1.407-0.647,1.866s-0.64,0.826-1.114,1.103
			c-0.475,0.277-1.025,0.415-1.653,0.415c-0.593,0-1.105-0.098-1.539-0.294s-0.759-0.467-0.975-0.813s-0.324-0.739-0.324-1.178
			c0-0.275,0.073-0.748,0.22-1.419L142.68,40.432z"/>
		<path d="M148.203,48.279l4.448-7.848h1.237l1.295,7.848h-1.017l-0.38-2.259h-3.175l-1.258,2.259H148.203z M151.062,45.212h2.597
			l-0.305-1.97c-0.118-0.782-0.191-1.433-0.22-1.954c-0.179,0.45-0.439,0.983-0.781,1.601L151.062,45.212z"/>
		<path d="M157.909,40.432h1.049l-1.007,4.823c-0.082,0.399-0.123,0.696-0.123,0.889c0,0.421,0.166,0.76,0.498,1.017
			c0.332,0.257,0.75,0.385,1.253,0.385c0.399,0,0.771-0.092,1.116-0.276c0.344-0.184,0.616-0.454,0.816-0.811
			c0.199-0.356,0.38-0.926,0.54-1.708l0.905-4.32h1.049l-0.958,4.604c-0.164,0.785-0.38,1.407-0.647,1.866s-0.64,0.826-1.114,1.103
			c-0.475,0.277-1.025,0.415-1.653,0.415c-0.593,0-1.105-0.098-1.539-0.294s-0.759-0.467-0.975-0.813s-0.324-0.739-0.324-1.178
			c0-0.275,0.073-0.748,0.22-1.419L157.909,40.432z"/>
	</g>
	<g>
		<path d="M22.941,73.799l1.45-6.954h-2.574l0.188-0.894h6.177l-0.187,0.894h-2.554l-1.451,6.954H22.941z"/>
		<path d="M26.702,73.799l1.188-5.685h0.856l-0.241,1.162c0.293-0.439,0.579-0.764,0.859-0.974s0.566-0.316,0.859-0.316
			c0.192,0,0.43,0.069,0.712,0.209l-0.396,0.899c-0.168-0.121-0.352-0.182-0.552-0.182c-0.339,0-0.687,0.189-1.043,0.567
			c-0.357,0.378-0.638,1.058-0.841,2.04l-0.481,2.28H26.702z"/>
		<path d="M29.876,75.978l1.644-7.864h0.894l-0.166,0.792c0.332-0.346,0.629-0.586,0.892-0.72s0.54-0.201,0.832-0.201
			c0.543,0,0.992,0.197,1.35,0.591c0.356,0.395,0.535,0.959,0.535,1.694c0,0.593-0.099,1.132-0.295,1.62
			c-0.196,0.487-0.437,0.878-0.723,1.175c-0.285,0.296-0.574,0.514-0.867,0.653c-0.292,0.139-0.592,0.208-0.899,0.208
			c-0.682,0-1.209-0.346-1.584-1.039l-0.643,3.089H29.876z M31.792,71.476c0,0.425,0.03,0.719,0.091,0.883
			c0.09,0.232,0.236,0.419,0.439,0.562s0.438,0.214,0.707,0.214c0.557,0,1.006-0.313,1.349-0.94
			c0.343-0.626,0.514-1.266,0.514-1.919c0-0.481-0.115-0.854-0.345-1.116c-0.23-0.262-0.517-0.393-0.859-0.393
			c-0.246,0-0.475,0.065-0.686,0.195s-0.406,0.325-0.586,0.583c-0.181,0.259-0.329,0.575-0.447,0.95
			C31.852,70.871,31.792,71.197,31.792,71.476z"/>
		<path d="M36.595,71.443l0.203-0.969h2.955l-0.198,0.969H36.595z"/>
		<path d="M46.348,71.037l1.038,0.145c-0.328,0.907-0.807,1.592-1.435,2.056s-1.333,0.696-2.114,0.696
			c-0.953,0-1.709-0.291-2.268-0.873s-0.837-1.415-0.837-2.5c0-1.413,0.424-2.582,1.273-3.506c0.757-0.824,1.697-1.236,2.821-1.236
			c0.831,0,1.505,0.223,2.021,0.669c0.516,0.446,0.814,1.046,0.896,1.799l-0.979,0.091c-0.104-0.567-0.316-0.991-0.64-1.271
			c-0.322-0.28-0.739-0.42-1.25-0.42c-0.96,0-1.736,0.426-2.328,1.279c-0.514,0.735-0.771,1.608-0.771,2.618
			c0,0.807,0.198,1.422,0.595,1.847c0.396,0.425,0.912,0.637,1.547,0.637c0.543,0,1.033-0.177,1.473-0.53
			C45.828,72.182,46.147,71.683,46.348,71.037z"/>
		<path d="M54.265,71.037l1.038,0.145c-0.328,0.907-0.807,1.592-1.435,2.056s-1.333,0.696-2.114,0.696
			c-0.953,0-1.709-0.291-2.268-0.873s-0.837-1.415-0.837-2.5c0-1.413,0.424-2.582,1.273-3.506c0.757-0.824,1.697-1.236,2.821-1.236
			c0.831,0,1.505,0.223,2.021,0.669c0.516,0.446,0.814,1.046,0.896,1.799l-0.979,0.091c-0.104-0.567-0.316-0.991-0.64-1.271
			c-0.322-0.28-0.739-0.42-1.25-0.42c-0.96,0-1.736,0.426-2.328,1.279c-0.514,0.735-0.771,1.608-0.771,2.618
			c0,0.807,0.198,1.422,0.595,1.847c0.396,0.425,0.912,0.637,1.547,0.637c0.543,0,1.033-0.177,1.473-0.53
			C53.745,72.182,54.064,71.683,54.265,71.037z"/>
		<path d="M55.352,73.799l4.448-7.848h1.237l1.295,7.848h-1.017l-0.38-2.259h-3.175l-1.258,2.259H55.352z M58.21,70.731h2.597
			l-0.305-1.97c-0.118-0.782-0.191-1.433-0.22-1.954c-0.179,0.45-0.439,0.983-0.781,1.601L58.21,70.731z"/>
	</g>
	<rect x="125.512" y="107.08" fill="#FFFFFF" width="38.254" height="12.746"/>
	
		<rect x="125.512" y="107.08" fill="none" stroke="#000000" stroke-width="0.8666" stroke-miterlimit="10" width="38.254" height="12.746"/>
	<g>
		<path d="M123.265,101.133l1.692-8.112h-3.004l0.219-1.043h7.207l-0.219,1.043h-2.979l-1.692,8.112H123.265z"/>
		<path d="M132.306,98.878l1.1,0.112c-0.158,0.546-0.521,1.064-1.09,1.556s-1.246,0.736-2.033,0.736
			c-0.491,0-0.942-0.113-1.352-0.34c-0.41-0.227-0.723-0.557-0.938-0.99c-0.214-0.433-0.321-0.926-0.321-1.479
			c0-0.725,0.167-1.428,0.503-2.108c0.335-0.681,0.769-1.187,1.302-1.518s1.109-0.496,1.73-0.496c0.791,0,1.423,0.245,1.896,0.736
			c0.472,0.492,0.708,1.162,0.708,2.012c0,0.324-0.029,0.657-0.087,0.999h-4.884c-0.017,0.129-0.025,0.246-0.025,0.35
			c0,0.62,0.143,1.094,0.428,1.421s0.634,0.49,1.046,0.49c0.388,0,0.769-0.127,1.144-0.381S132.098,99.357,132.306,98.878z
			 M129.021,97.235h3.723c0.004-0.116,0.006-0.199,0.006-0.249c0-0.566-0.142-1.001-0.425-1.303s-0.647-0.452-1.093-0.452
			c-0.482,0-0.923,0.166-1.32,0.499C129.513,96.063,129.217,96.565,129.021,97.235z"/>
		<path d="M134.548,101.133l1.387-6.633h0.999l-0.281,1.355c0.342-0.512,0.676-0.891,1.002-1.137
			c0.327-0.245,0.661-0.368,1.003-0.368c0.225,0,0.502,0.081,0.83,0.243l-0.462,1.05c-0.195-0.142-0.41-0.213-0.643-0.213
			c-0.396,0-0.802,0.221-1.219,0.662c-0.416,0.441-0.743,1.234-0.98,2.38l-0.562,2.66H134.548z"/>
		<path d="M138.8,101.133l1.387-6.633h1.131l-0.231,1.093c0.421-0.47,0.797-0.795,1.127-0.974c0.331-0.179,0.69-0.269,1.078-0.269
			c0.412,0,0.756,0.109,1.033,0.328c0.277,0.218,0.459,0.523,0.547,0.914c0.337-0.416,0.691-0.728,1.064-0.934
			s0.765-0.309,1.177-0.309c0.554,0,0.97,0.131,1.246,0.394c0.277,0.262,0.416,0.631,0.416,1.105c0,0.204-0.048,0.541-0.144,1.012
			l-0.894,4.271h-1.131l0.912-4.384c0.079-0.358,0.119-0.614,0.119-0.769c0-0.217-0.069-0.388-0.206-0.512
			c-0.138-0.125-0.331-0.188-0.581-0.188c-0.337,0-0.681,0.102-1.03,0.306s-0.622,0.472-0.815,0.803s-0.363,0.84-0.509,1.526
			l-0.675,3.217h-1.13l0.937-4.478c0.066-0.305,0.1-0.521,0.1-0.649c0-0.217-0.067-0.392-0.203-0.525
			c-0.135-0.133-0.311-0.199-0.527-0.199c-0.32,0-0.657,0.102-1.009,0.306s-0.638,0.488-0.858,0.853s-0.402,0.884-0.543,1.559
			l-0.656,3.135H138.8z"/>
	</g>
	<g>
		<path d="M149.376,105.393l1.118-5.338h2.239c0.441,0,0.776,0.037,1.005,0.11c0.228,0.074,0.406,0.214,0.536,0.417
			c0.13,0.204,0.195,0.462,0.195,0.772c0,0.435-0.142,0.795-0.426,1.081s-0.743,0.473-1.377,0.557
			c0.194,0.144,0.342,0.284,0.441,0.423c0.223,0.313,0.402,0.637,0.538,0.972l0.408,1.006h-0.798l-0.382-0.994
			c-0.139-0.359-0.296-0.67-0.474-0.933c-0.121-0.182-0.245-0.302-0.371-0.358s-0.331-0.086-0.615-0.086h-0.83l-0.495,2.371H149.376
			z M150.705,102.443h0.986c0.456,0,0.754-0.007,0.893-0.019c0.27-0.026,0.49-0.088,0.662-0.183c0.173-0.094,0.306-0.222,0.4-0.382
			s0.143-0.333,0.143-0.517c0-0.156-0.035-0.291-0.105-0.406s-0.163-0.193-0.277-0.235c-0.114-0.041-0.308-0.062-0.582-0.062h-1.74
			L150.705,102.443z"/>
		<path d="M154.731,105.393l1.118-5.338h2.229c0.386,0,0.675,0.044,0.868,0.133c0.192,0.088,0.353,0.24,0.479,0.455
			s0.189,0.455,0.189,0.723c0,0.221-0.045,0.445-0.135,0.674c-0.09,0.228-0.203,0.416-0.341,0.564
			c-0.137,0.147-0.275,0.26-0.417,0.335c-0.141,0.075-0.291,0.131-0.451,0.167c-0.342,0.08-0.688,0.12-1.037,0.12h-1.337
			l-0.451,2.167H154.731z M156.024,102.621h1.176c0.456,0,0.791-0.049,1.005-0.147c0.214-0.098,0.385-0.248,0.514-0.449
			c0.128-0.202,0.192-0.415,0.192-0.641c0-0.175-0.034-0.317-0.102-0.429c-0.068-0.11-0.164-0.191-0.288-0.243
			c-0.123-0.053-0.361-0.079-0.713-0.079h-1.369L156.024,102.621z"/>
		<path d="M159.734,105.393l1.118-5.338h2.239c0.441,0,0.776,0.037,1.005,0.11c0.228,0.074,0.406,0.214,0.536,0.417
			c0.13,0.204,0.195,0.462,0.195,0.772c0,0.435-0.142,0.795-0.426,1.081s-0.743,0.473-1.377,0.557
			c0.194,0.144,0.342,0.284,0.441,0.423c0.223,0.313,0.402,0.637,0.538,0.972l0.408,1.006h-0.798l-0.382-0.994
			c-0.139-0.359-0.296-0.67-0.474-0.933c-0.121-0.182-0.245-0.302-0.371-0.358s-0.331-0.086-0.615-0.086h-0.83l-0.495,2.371H159.734
			z M161.063,102.443h0.986c0.456,0,0.754-0.007,0.893-0.019c0.27-0.026,0.49-0.088,0.662-0.183c0.173-0.094,0.306-0.222,0.4-0.382
			s0.143-0.333,0.143-0.517c0-0.156-0.035-0.291-0.105-0.406s-0.163-0.193-0.277-0.235c-0.114-0.041-0.308-0.062-0.582-0.062h-1.74
			L161.063,102.443z"/>
		<path d="M166.565,105.393l0.845-4.031c-0.364,0.286-0.876,0.516-1.536,0.688l0.123-0.598c0.328-0.131,0.651-0.302,0.971-0.513
			c0.319-0.212,0.559-0.396,0.719-0.554c0.098-0.097,0.189-0.215,0.277-0.354h0.382l-1.117,5.36H166.565z"/>
	</g>
	<rect x="23.135" y="22.372" fill="#A5A7AA" width="36.662" height="12.749"/>
	
		<rect x="23.135" y="22.372" fill="none" stroke="#000000" stroke-width="0.8484" stroke-miterlimit="10" width="36.662" height="12.749"/>
	<g>
		<path d="M28.01,14.596l1.917-9.156h3.822c0.662,0,1.158,0.076,1.489,0.228c0.331,0.152,0.604,0.412,0.821,0.781
			s0.325,0.782,0.325,1.24c0,0.379-0.077,0.764-0.231,1.155c-0.154,0.392-0.349,0.714-0.584,0.968s-0.474,0.445-0.715,0.574
			c-0.241,0.129-0.5,0.225-0.774,0.288c-0.587,0.137-1.181,0.206-1.78,0.206h-2.292l-0.774,3.716H28.01z M30.227,9.843h2.018
			c0.782,0,1.357-0.084,1.724-0.253c0.366-0.168,0.659-0.425,0.881-0.771c0.22-0.346,0.33-0.712,0.33-1.099
			c0-0.3-0.058-0.544-0.175-0.734c-0.116-0.189-0.28-0.329-0.493-0.418c-0.212-0.089-0.62-0.134-1.224-0.134h-2.349L30.227,9.843z"
			/>
	</g>
	<g>
		<path d="M36.516,17.129l0.699-0.065l-0.008,0.186c0,0.206,0.048,0.395,0.143,0.566c0.095,0.171,0.251,0.304,0.47,0.397
			c0.218,0.093,0.478,0.14,0.779,0.14c0.427,0,0.753-0.093,0.978-0.28c0.224-0.187,0.336-0.4,0.336-0.641
			c0-0.167-0.059-0.32-0.178-0.458c-0.122-0.136-0.453-0.32-0.994-0.554c-0.42-0.182-0.706-0.321-0.859-0.418
			c-0.24-0.158-0.418-0.33-0.531-0.515c-0.114-0.186-0.172-0.397-0.172-0.635c0-0.274,0.075-0.522,0.227-0.743
			c0.15-0.221,0.37-0.39,0.66-0.506c0.29-0.117,0.617-0.175,0.981-0.175c0.435,0,0.801,0.073,1.1,0.218
			c0.299,0.146,0.516,0.34,0.65,0.583c0.135,0.243,0.202,0.475,0.202,0.696c0,0.021-0.002,0.058-0.004,0.109l-0.688,0.055
			c0-0.15-0.014-0.268-0.04-0.353c-0.049-0.148-0.124-0.273-0.226-0.375s-0.242-0.184-0.421-0.246
			c-0.178-0.062-0.378-0.093-0.599-0.093c-0.389,0-0.69,0.087-0.906,0.262c-0.165,0.134-0.248,0.311-0.248,0.532
			c0,0.131,0.034,0.248,0.103,0.352c0.067,0.103,0.19,0.204,0.367,0.304c0.126,0.07,0.426,0.21,0.899,0.419
			c0.384,0.17,0.648,0.303,0.794,0.4c0.194,0.129,0.343,0.285,0.447,0.468c0.104,0.184,0.157,0.392,0.157,0.625
			c0,0.289-0.088,0.555-0.265,0.799c-0.176,0.244-0.419,0.433-0.729,0.566c-0.311,0.134-0.666,0.2-1.067,0.2
			c-0.604,0-1.098-0.131-1.479-0.395C36.71,18.288,36.518,17.813,36.516,17.129z"/>
		<path d="M42.443,13.517h0.713l-0.684,3.281c-0.057,0.272-0.084,0.473-0.084,0.604c0,0.286,0.112,0.517,0.339,0.692
			c0.226,0.174,0.51,0.262,0.852,0.262c0.271,0,0.524-0.062,0.759-0.188c0.234-0.125,0.42-0.309,0.556-0.551s0.259-0.63,0.368-1.162
			l0.615-2.938h0.713l-0.651,3.131c-0.111,0.534-0.259,0.957-0.44,1.269c-0.183,0.312-0.435,0.562-0.758,0.75
			c-0.322,0.188-0.697,0.282-1.125,0.282c-0.402,0-0.752-0.067-1.047-0.2c-0.295-0.134-0.516-0.318-0.662-0.554
			c-0.147-0.235-0.221-0.502-0.221-0.801c0-0.187,0.05-0.509,0.149-0.965L42.443,13.517z"/>
		<path d="M46.67,18.855l1.118-5.338h2.229c0.386,0,0.675,0.044,0.868,0.133c0.192,0.088,0.353,0.24,0.479,0.455
			s0.189,0.456,0.189,0.723c0,0.221-0.045,0.445-0.135,0.673c-0.09,0.229-0.203,0.417-0.341,0.564
			c-0.137,0.148-0.275,0.26-0.417,0.335c-0.141,0.075-0.291,0.131-0.451,0.167c-0.342,0.08-0.688,0.12-1.037,0.12h-1.337
			l-0.451,2.167H46.67z M47.963,16.084h1.176c0.456,0,0.791-0.049,1.005-0.147c0.214-0.098,0.385-0.248,0.514-0.45
			c0.128-0.201,0.192-0.415,0.192-0.641c0-0.175-0.034-0.317-0.102-0.428c-0.068-0.11-0.164-0.192-0.288-0.244
			c-0.123-0.052-0.361-0.078-0.713-0.078h-1.369L47.963,16.084z"/>
		<path d="M53.552,18.855l0.287-1.362h-2.177l0.138-0.652l2.989-3.324h0.539l-0.71,3.394h0.75l-0.12,0.583h-0.75l-0.287,1.362
			H53.552z M53.959,16.911l0.467-2.228l-1.988,2.228H53.959z"/>
	</g>
	<path fill="none" stroke="#000000" stroke-width="0.5491" stroke-miterlimit="10" stroke-dasharray="1.0983,1.0983" d="
		M181.334,92.273c0,22.194-15.517,40.186-34.661,40.186H34.666C15.522,132.459,0,114.468,0,92.273V40.39
		C0,18.195,15.522,0.204,34.666,0.204h112.007c19.145,0,34.661,17.991,34.661,40.186V92.273z"/>
	<path d="M57.567,131.77c0,2.39-1.832,4.325-4.111,4.325c-2.266,0-4.105-1.936-4.105-4.325c0-2.391,1.84-4.324,4.105-4.324
		C55.735,127.445,57.567,129.379,57.567,131.77z"/>
	<path fill="none" stroke="#000000" stroke-width="1.1909" stroke-miterlimit="10" d="M57.567,131.77
		c0,2.39-1.832,4.325-4.111,4.325c-2.266,0-4.105-1.936-4.105-4.325c0-2.391,1.84-4.324,4.105-4.324
		C55.735,127.445,57.567,129.379,57.567,131.77z"/>
	<g>
		<path d="M30,151.066c0.117-0.545,0.278-1.002,0.484-1.371c0.206-0.368,0.479-0.718,0.821-1.049s0.999-0.886,1.974-1.664
			c0.591-0.471,0.995-0.818,1.212-1.043c0.312-0.325,0.539-0.644,0.681-0.956c0.096-0.212,0.144-0.443,0.144-0.693
			c0-0.42-0.149-0.777-0.447-1.071c-0.297-0.293-0.663-0.439-1.096-0.439c-0.429,0-0.804,0.148-1.124,0.446s-0.55,0.775-0.687,1.434
			l-1.105-0.163c0.107-0.812,0.423-1.452,0.945-1.92c0.522-0.469,1.174-0.703,1.952-0.703c0.521,0,0.992,0.108,1.414,0.325
			c0.423,0.217,0.74,0.521,0.953,0.911c0.212,0.392,0.318,0.796,0.318,1.212c0,0.608-0.217,1.193-0.649,1.755
			c-0.267,0.35-1.05,1.039-2.349,2.067c-0.558,0.441-0.973,0.804-1.246,1.087c-0.272,0.283-0.478,0.55-0.615,0.799h4.098
			l-0.219,1.037H30z"/>
		<path d="M38.382,144.434h1.117l-0.662,3.117c-0.162,0.758-0.243,1.288-0.243,1.592c0,0.333,0.11,0.605,0.331,0.815
			s0.522,0.315,0.905,0.315c0.513,0,0.947-0.186,1.306-0.556c0.267-0.283,0.491-0.854,0.675-1.712l0.749-3.572h1.118l-1.412,6.633
			h-1.005l0.112-0.524c-0.566,0.454-1.12,0.681-1.661,0.681c-0.309,0-0.578-0.062-0.809-0.188c-0.231-0.125-0.457-0.322-0.678-0.594
			l-0.675,3.186h-1.111L38.382,144.434z"/>
		<path d="M47.912,148.55c0-1.295,0.381-2.367,1.143-3.217c0.629-0.699,1.453-1.049,2.473-1.049c0.8,0,1.444,0.25,1.934,0.749
			c0.489,0.5,0.733,1.175,0.733,2.023c0,0.762-0.154,1.471-0.462,2.127c-0.309,0.655-0.746,1.158-1.314,1.508
			s-1.167,0.525-1.796,0.525c-0.517,0-0.985-0.111-1.408-0.331c-0.423-0.221-0.745-0.533-0.968-0.938
			C48.023,149.545,47.912,149.078,47.912,148.55z M49.042,148.438c0,0.624,0.15,1.098,0.45,1.421
			c0.299,0.322,0.681,0.483,1.143,0.483c0.241,0,0.48-0.049,0.718-0.146s0.458-0.247,0.662-0.446c0.204-0.2,0.378-0.428,0.521-0.685
			c0.144-0.256,0.26-0.531,0.347-0.827c0.129-0.412,0.193-0.808,0.193-1.187c0-0.6-0.15-1.064-0.452-1.396s-0.682-0.497-1.14-0.497
			c-0.354,0-0.677,0.084-0.969,0.253c-0.291,0.169-0.555,0.415-0.79,0.74s-0.408,0.702-0.518,1.134
			C49.098,147.716,49.042,148.1,49.042,148.438z"/>
		<path d="M54.825,151.066l1.387-6.633h0.999l-0.281,1.355c0.342-0.512,0.676-0.891,1.002-1.137
			c0.327-0.245,0.661-0.368,1.003-0.368c0.225,0,0.502,0.081,0.83,0.243l-0.462,1.05c-0.195-0.142-0.41-0.213-0.643-0.213
			c-0.396,0-0.802,0.221-1.219,0.662c-0.416,0.441-0.743,1.234-0.98,2.38l-0.562,2.66H54.825z"/>
		<path d="M59.041,151.066l1.387-6.633h1.13l-1.386,6.633H59.041z M60.689,143.191l0.269-1.28h1.125l-0.269,1.28H60.689z"/>
		<path d="M61.864,151.666l1.143,0.106c-0.008,0.258,0.023,0.451,0.094,0.58c0.071,0.13,0.184,0.229,0.338,0.3
			c0.203,0.092,0.468,0.138,0.793,0.138c0.683,0,1.174-0.177,1.474-0.531c0.195-0.237,0.377-0.753,0.543-1.549l0.112-0.536
			c-0.587,0.595-1.211,0.893-1.873,0.893c-0.671,0-1.231-0.247-1.684-0.74c-0.451-0.493-0.677-1.191-0.677-2.095
			c0-0.746,0.178-1.431,0.533-2.055c0.356-0.625,0.78-1.097,1.271-1.415s0.997-0.478,1.518-0.478c0.87,0,1.54,0.412,2.011,1.236
			l0.225-1.087h1.037l-1.337,6.401c-0.146,0.704-0.337,1.253-0.574,1.646c-0.237,0.394-0.567,0.699-0.99,0.915
			c-0.422,0.217-0.91,0.325-1.464,0.325c-0.533,0-0.992-0.068-1.378-0.206c-0.385-0.138-0.672-0.339-0.861-0.603
			c-0.189-0.265-0.284-0.567-0.284-0.909C61.833,151.899,61.844,151.787,61.864,151.666z M63.275,148.131
			c0,0.454,0.044,0.796,0.132,1.024c0.124,0.32,0.303,0.565,0.533,0.733c0.231,0.169,0.488,0.254,0.771,0.254
			c0.371,0,0.739-0.131,1.105-0.391c0.366-0.261,0.663-0.663,0.89-1.209c0.228-0.545,0.341-1.065,0.341-1.561
			c0-0.546-0.151-0.979-0.453-1.303c-0.302-0.322-0.675-0.484-1.121-0.484c-0.274,0-0.541,0.074-0.799,0.223
			c-0.259,0.147-0.499,0.372-0.722,0.674s-0.392,0.663-0.506,1.084C63.333,147.596,63.275,147.915,63.275,148.131z"/>
		<path d="M68.996,151.066l1.387-6.633h1.13l-1.386,6.633H68.996z M70.645,143.191l0.269-1.28h1.125l-0.269,1.28H70.645z"/>
		<path d="M71.882,151.066l1.387-6.633h1.023l-0.243,1.155c0.445-0.453,0.862-0.784,1.249-0.992
			c0.388-0.209,0.783-0.312,1.187-0.312c0.537,0,0.959,0.146,1.265,0.437c0.307,0.292,0.459,0.682,0.459,1.168
			c0,0.246-0.054,0.633-0.162,1.162l-0.843,4.016h-1.131l0.881-4.203c0.087-0.408,0.131-0.71,0.131-0.905
			c0-0.221-0.076-0.4-0.228-0.537c-0.152-0.138-0.372-0.206-0.659-0.206c-0.579,0-1.094,0.208-1.546,0.624
			c-0.452,0.417-0.783,1.131-0.996,2.143l-0.644,3.085H71.882z"/>
	</g>
	<path d="M133.209,131.765c0,2.392-1.839,4.331-4.111,4.331c-2.266,0-4.111-1.939-4.111-4.331c0-2.388,1.846-4.321,4.111-4.321
		C131.37,127.443,133.209,129.377,133.209,131.765z"/>
	<path fill="none" stroke="#000000" stroke-width="1.1909" stroke-miterlimit="10" d="M133.209,131.765
		c0,2.392-1.839,4.331-4.111,4.331c-2.266,0-4.111-1.939-4.111-4.331c0-2.388,1.846-4.321,4.111-4.321
		C131.37,127.443,133.209,129.377,133.209,131.765z"/>
	<g>
		<path d="M117.823,151.633l1.692-8.112h-3.004l0.219-1.043h7.207l-0.219,1.043h-2.979l-1.692,8.112H117.823z"/>
		<path d="M123.331,151.633l1.917-9.155h3.841c0.758,0,1.333,0.063,1.724,0.19c0.392,0.127,0.699,0.365,0.922,0.715
			s0.334,0.791,0.334,1.324c0,0.745-0.244,1.363-0.73,1.854c-0.487,0.491-1.274,0.81-2.361,0.956
			c0.333,0.245,0.585,0.486,0.756,0.724c0.383,0.537,0.691,1.094,0.925,1.668l0.699,1.724h-1.368l-0.655-1.705
			c-0.237-0.616-0.508-1.149-0.812-1.599c-0.208-0.312-0.42-0.518-0.637-0.615s-0.568-0.146-1.056-0.146h-1.424l-0.85,4.065H123.331
			z M125.61,146.574h1.692c0.783,0,1.293-0.011,1.53-0.031c0.462-0.046,0.841-0.15,1.137-0.312s0.524-0.381,0.688-0.655
			c0.162-0.275,0.243-0.57,0.243-0.887c0-0.267-0.061-0.499-0.182-0.697c-0.12-0.197-0.278-0.331-0.475-0.402
			c-0.195-0.07-0.528-0.106-0.999-0.106h-2.985L125.61,146.574z"/>
		<path d="M132.519,151.633l1.917-9.155h3.822c0.662,0,1.158,0.075,1.489,0.228s0.604,0.412,0.821,0.78
			c0.217,0.369,0.325,0.782,0.325,1.24c0,0.379-0.077,0.764-0.231,1.155s-0.349,0.714-0.584,0.968s-0.474,0.446-0.715,0.575
			s-0.5,0.225-0.774,0.287c-0.587,0.137-1.181,0.206-1.78,0.206h-2.292l-0.774,3.716H132.519z M134.735,146.88h2.018
			c0.782,0,1.357-0.084,1.724-0.253c0.366-0.168,0.659-0.426,0.881-0.771c0.22-0.345,0.33-0.712,0.33-1.099
			c0-0.3-0.058-0.544-0.175-0.734c-0.116-0.188-0.28-0.328-0.493-0.418c-0.212-0.09-0.62-0.135-1.224-0.135h-2.349L134.735,146.88z"
			/>
		<path d="M143.579,151.633l1.449-6.914c-0.625,0.492-1.504,0.886-2.636,1.181l0.212-1.024c0.562-0.225,1.117-0.518,1.665-0.88
			c0.547-0.362,0.958-0.679,1.233-0.949c0.166-0.167,0.324-0.369,0.475-0.606h0.655l-1.917,9.193H143.579z"/>
	</g>
	
		<line fill="none" stroke="#000000" stroke-width="0.5401" stroke-miterlimit="10" x1="60.315" y1="28.746" x2="160.733" y2="28.746"/>
	
		<line fill="none" stroke="#000000" stroke-width="0.5401" stroke-miterlimit="10" x1="44.388" y1="58.775" x2="144.798" y2="58.775"/>
	
		<line fill="none" stroke="#000000" stroke-width="0.5401" stroke-miterlimit="10" x1="51.368" y1="84.295" x2="151.786" y2="84.295"/>
	
		<line fill="none" stroke="#000000" stroke-width="0.4641" stroke-miterlimit="10" x1="51.368" y1="112.731" x2="125.512" y2="112.731"/>
</g>
<g>
</g>
<g>
</g>
<g>
</g>
<g>
</g>
<g>
</g>
<g>
</g>
</svg>
